# xmcd
# 
# Track frame offsets:
#     150
#     8200
#     37870
#     45710
#     60032
#     71007
#     87335
#     116497
#     127030
#     136600
#     151130
#     188237
#     196627
# 
# Disc length: 2766
# 
# Revision: 1
# Processed by: cddbd v1.5.2PL0 Copyright (c) Steve Scherf et al.
# Submitted via: fre:ac v1.0.17
# 
DISCID=9b0acc0d
DTITLE=Clark Terry&Max Roach - FRIENDSHIP
DYEAR=0
DGENRE=Jazz
TTITLE0=Statements
TTITLE1=Let`s Coot One
TTITLE2=Brushes And Brass
TTITLE3=Simple Waltz
TTITLE4=I Remember Clifford
TTITLE5=Lil Max
TTITLE6=But Beautiful
TTITLE7=The Profit
TTITLE8=When I Fall In Love
TTITLE9=For Dancers Only
TTITLE10=Makin` Whoopee
TTITLE11=To Basie With Love
TTITLE12=The Neamess Of You
EXTD=
EXTT0=
EXTT1=
EXTT2=
EXTT3=
EXTT4=
EXTT5=
EXTT6=
EXTT7=
EXTT8=
EXTT9=
EXTT10=
EXTT11=
EXTT12=
PLAYORDER=
